<?xml version="1.0" encoding="utf-8"?>
<!-- Generator: Adobe Illustrator 23.0.2, SVG Export Plug-In . SVG Version: 6.00 Build 0)  -->
<svg version="1.1" id="Layer_1" xmlns="http://www.w3.org/2000/svg" xmlns:xlink="http://www.w3.org/1999/xlink" x="0px" y="0px"
	 viewBox="0 0 512 512" style="enable-background:new 0 0 512 512;" xml:space="preserve">
<style type="text/css">
	.st0{fill:#FFFFFF;}
</style>
<path id="XMLID_1_" class="st0" d="M256.2,448.9c-62.2,0-119.4-22.4-169.8-66.5c-41.1-35.9-67.4-77.9-79.4-99.7
	c-9.3-16.8-9.2-36.8,0.2-53.5c12.2-21.8,38.9-63.7,80-99.6C137.8,85.4,194.6,63,256.2,63c61.6,0,118.4,22.4,168.9,66.6
	c41.1,35.9,67.7,77.8,79.8,99.6c9.3,16.7,9.4,36.6,0.2,53.4c-5.6,10.1-14.9,25.8-27.7,43.2c-6.6,8.9-19.1,10.8-28,4.2
	c-8.9-6.6-10.8-19.1-4.2-28c11.5-15.6,19.8-29.7,24.8-38.7c2.5-4.6,2.5-10-0.1-14.6C445.5,204.9,375.6,103,256.2,103
	C136.7,103,66.6,204.9,42,248.8c-2.6,4.6-2.6,10.1-0.1,14.6c24.1,43.8,93.3,145.5,214.2,145.5c44.5,0,86.3-13.9,124.3-41.4
	c8.9-6.5,21.4-4.5,27.9,4.5c6.5,8.9,4.5,21.4-4.5,27.9C359,432.5,309.3,448.9,256.2,448.9z M374,256c0-65.1-52.9-118-118-118
	s-118,52.9-118,118s52.9,118,118,118C321.1,373.9,374,321,374,256z M334,256c0,43-35,78-78,78c-43,0-78-35-78-78s35-78,78-78
	C299,178,334,213,334,256z M278.4,261.4c-15.3-1-27.6-13.8-27.9-29.2c0-0.1,0-0.3,0-0.4c-0.1-8.7-9.8-13.8-17-8.9
	c-11.4,7.7-18.6,21.2-17.4,36.2c1.5,19.5,17.2,35.2,36.7,36.7c15,1.2,28.5-6,36.2-17.4c4.9-7.2-0.2-16.9-8.9-17
	C279.6,261.5,279,261.4,278.4,261.4z"/>
</svg>
