<?xml version="1.0" encoding="utf-8"?>
<!-- Generator: Adobe Illustrator 23.0.2, SVG Export Plug-In . SVG Version: 6.00 Build 0)  -->
<svg version="1.1" id="Layer_1" xmlns="http://www.w3.org/2000/svg" xmlns:xlink="http://www.w3.org/1999/xlink" x="0px" y="0px"
	 viewBox="0 0 512 512" style="enable-background:new 0 0 512 512;" xml:space="preserve">
<style type="text/css">
	.st0{fill:#FFFFFF;}
</style>
<g>
	<path class="st0" d="M446,186.6c0,6.5-1.3,13.1-3.9,19.4c-7.8,18.8-25.9,31-46.2,31h-43c-11,0-20-9-20-20s9-20,20-20h43
		c6,0,8.5-4.4,9.2-6.3c0.8-1.9,2.2-6.9-2.1-11.2L270.2,46.8c-7.8-7.8-20.6-7.8-28.4,0L109,179.5c-4.3,4.3-2.9,9.3-2.1,11.2
		c0.8,1.9,3.3,6.3,9.2,6.3H237c22.1,0,40,17.9,40,40v256c0,11-9,20-20,20c-11,0-20-9-20-20V237H116.1c-20.3,0-38.4-12.2-46.2-31
		c-7.8-18.9-3.6-40.4,10.8-54.8L213.5,18.5c23.4-23.4,61.5-23.4,84.9,0l132.9,132.7C440.9,160.8,446,173.6,446,186.6z"/>
</g>
</svg>
