<?xml version="1.0"?>
<svg xmlns="http://www.w3.org/2000/svg" xmlns:xlink="http://www.w3.org/1999/xlink" version="1.1" viewBox="0 0 192 192" width="64px" height="64px"><g fill="none" fill-rule="nonzero" stroke="none" stroke-width="1" stroke-linecap="butt" stroke-linejoin="miter" stroke-miterlimit="10" stroke-dasharray="" stroke-dashoffset="0" font-family="none" font-weight="none" font-size="none" text-anchor="none" style="mix-blend-mode: normal"><path d="M0,192v-192h192v192z" fill="none"/><g fill="#000000"><path d="M96,9.07617c-22.275,0 -44.55,8.47383 -61.5,25.42383c-16.5,16.35 -25.5,38.25 -25.5,61.5c0,23.25 9,45.15 25.5,61.5c16.95,16.95 39.3,25.5 61.5,25.5c22.35,0 44.55,-8.55 61.5,-25.5c16.5,-16.5 25.5,-38.25 25.5,-61.5c0,-23.25 -9,-45.15 -25.5,-61.5c-16.95,-16.95 -39.225,-25.42383 -61.5,-25.42383zM96,18c19.95,0 39.90117,7.64883 55.20117,22.79883c14.7,14.85 22.79883,34.35117 22.79883,55.20117c0,20.85 -8.09883,40.35117 -22.79883,55.20117c-30.45,30.45 -79.95,30.45 -110.25,0c-14.85,-14.85 -22.95117,-34.35117 -22.95117,-55.20117c0,-20.85 8.09883,-40.35117 22.79883,-55.20117c15.3,-15.15 35.25117,-22.79883 55.20117,-22.79883zM88.44434,69c-1.14375,0 -2.26875,0.45059 -3.09375,1.35059l-22.5,22.5c-1.8,1.8 -1.8,4.64883 0,6.29883l22.5,22.5c0.9,0.9 2.09941,1.35059 3.14941,1.35059c1.05,0 2.24941,-0.45059 3.14941,-1.35059c1.8,-1.8 1.8,-4.64883 0,-6.29883l-14.85059,-14.85059h46.20117c2.55,0 4.5,-1.95 4.5,-4.5c0,-2.55 -1.95,-4.5 -4.5,-4.5h-46.20117l14.85059,-14.85059c1.8,-1.8 1.8,-4.64883 0,-6.29883c-0.9,-0.9 -2.06133,-1.35059 -3.20508,-1.35059z"/></g></g></svg>
