<?xml version="1.0"?>
<svg xmlns="http://www.w3.org/2000/svg" xmlns:xlink="http://www.w3.org/1999/xlink" version="1.1" viewBox="0 0 192 192" width="50px" height="50px"><g fill="none" fill-rule="nonzero" stroke="none" stroke-width="1" stroke-linecap="butt" stroke-linejoin="miter" stroke-miterlimit="10" stroke-dasharray="" stroke-dashoffset="0" font-family="none" font-weight="none" font-size="none" text-anchor="none" style="mix-blend-mode: normal"><path d="M0,192v-192h192v192z" fill="none"/><g fill="#919197"><g id="surface1"><path d="M7.68,34.56v76.8h42.24v7.68c0,7.71 -2.37,14.61 -5.985,19.425c-3.6,4.8 -8.235,7.455 -13.215,7.455h-3.84v26.88h3.84c29.64,0 53.76,-24.12 53.76,-53.76v-84.48zM107.52,34.56v76.8h42.24v7.68c0,7.71 -2.37,14.61 -5.985,19.425c-3.6,4.8 -8.235,7.455 -13.215,7.455h-3.84v26.88h3.84c29.64,0 53.76,-24.12 53.76,-53.76v-84.48zM15.36,42.24h61.44v76.8c0,24.135 -18.645,43.26 -42.24,45.3v-11.76c6.09,-1.185 11.64,-4.335 15.525,-9.525c4.725,-6.3 7.515,-14.76 7.515,-24.015v-15.36h-42.24zM115.2,42.24h61.44v76.8c0,24.135 -18.645,43.26 -42.24,45.3v-11.76c6.09,-1.185 11.64,-4.335 15.525,-9.525c4.725,-6.3 7.515,-14.76 7.515,-24.015v-15.36h-42.24z"/></g></g></g></svg>
