<?xml version="1.0" encoding="UTF-8"?> <svg xmlns="http://www.w3.org/2000/svg" width="153" height="26" viewBox="0 0 153 26"><g fill="#161616" fill-rule="evenodd"><path d="M0 .662h8.259c1.546 0 3.099.256 4.657.767a12.875 12.875 0 0 1 4.217 2.318c1.253 1.034 2.267 2.323 3.04 3.868.773 1.545 1.16 3.34 1.16 5.385 0 2.068-.387 3.869-1.16 5.402-.773 1.534-1.787 2.817-3.04 3.851a12.875 12.875 0 0 1-4.217 2.318c-1.558.511-3.11.767-4.657.767H0V.662zm2.53 22.445h5.026c1.874 0 3.509-.29 4.903-.871 1.394-.581 2.548-1.342 3.461-2.283a9.313 9.313 0 0 0 2.056-3.224A10.46 10.46 0 0 0 18.662 13a10.46 10.46 0 0 0-.686-3.73 9.313 9.313 0 0 0-2.056-3.223c-.913-.941-2.067-1.702-3.461-2.283-1.394-.58-3.029-.871-4.903-.871H2.53v20.214zm23.055 2.23H22.81L33.563.663h2.46l10.684 24.676h-2.811l-2.742-6.483H28.291l-2.706 6.483zm3.655-8.782h10.965L34.723 3.45 29.24 16.555zm27.554 8.783h-2.53v-10.63L44.95.662h3.163l7.486 11.955L63.155.662h2.952l-9.313 14.046v10.63zm46.601-12.443c0 1.952-.34 3.735-1.019 5.35-.68 1.615-1.623 2.998-2.83 4.148-1.206 1.15-2.64 2.039-4.304 2.666-1.664.627-3.468.941-5.413.941-1.944 0-3.742-.314-5.394-.941-1.652-.627-3.081-1.516-4.288-2.666-1.207-1.15-2.15-2.533-2.83-4.148-.679-1.615-1.018-3.398-1.018-5.35 0-1.975.34-3.758 1.019-5.35.68-1.591 1.622-2.944 2.83-4.06C81.353 2.37 82.782 1.51 84.434.906 86.087.302 87.885 0 89.829 0c1.945 0 3.75.302 5.413.906 1.663.604 3.098 1.464 4.305 2.58 1.206 1.115 2.15 2.468 2.829 4.06.68 1.591 1.02 3.374 1.02 5.35zm-6.431 0a8.404 8.404 0 0 0-.527-2.997c-.352-.93-.838-1.725-1.459-2.387a6.733 6.733 0 0 0-2.25-1.569c-.878-.383-1.844-.575-2.899-.575-1.054 0-2.015.192-2.881.575a6.977 6.977 0 0 0-2.25 1.569 6.773 6.773 0 0 0-1.458 2.387c-.34.93-.51 1.929-.51 2.997 0 1.116.176 2.144.527 3.085.352.94.838 1.748 1.459 2.422a6.658 6.658 0 0 0 2.232 1.586c.866.383 1.827.575 2.881.575 1.055 0 2.015-.192 2.882-.575a6.85 6.85 0 0 0 2.25-1.586c.632-.674 1.124-1.481 1.476-2.422.351-.941.527-1.97.527-3.085zm26.218 12.443l-10.017-11.296.035 11.296h-5.833V.662L130 25.338h-6.818zm11.949 0V.662h16.728v5.054h-10.93v4.635h10.333v4.775H140.93v5.123h11.562v5.089h-17.361zM110.81.619h19.087v19.706z"></path></g></svg> 