<svg width="173" height="30" viewBox="0 0 173 30" fill="none" xmlns="http://www.w3.org/2000/svg">
<path d="M41 23.257V1.03018H45.722V23.257H41Z" fill="#34284A"/>
<path d="M58.309 7.02393C61.9413 7.02393 63.7575 9.24037 63.7575 13.6733V23.257H59.1868V13.8918C59.1868 12.7888 58.985 11.9875 58.5814 11.488C58.198 10.9677 57.5825 10.7076 56.735 10.7076C55.726 10.7076 54.9188 11.0406 54.3134 11.7066C53.708 12.3725 53.4053 13.2674 53.4053 14.3913V23.257H48.8346V11.9563C48.8346 10.2706 48.7539 8.76171 48.5924 7.42976H52.8907L53.1934 9.92716C53.7383 8.99064 54.4446 8.27263 55.3123 7.77315C56.2002 7.27367 57.1991 7.02393 58.309 7.02393Z" fill="#34284A"/>
<path d="M72.3625 23.5068C69.4567 23.5068 67.1663 22.8616 65.4914 21.5713L66.7021 18.2934C67.5093 18.897 68.4073 19.3652 69.3961 19.6982C70.3849 20.0104 71.3939 20.1665 72.4231 20.1665C73.2101 20.1665 73.8155 20.0416 74.2393 19.7919C74.663 19.5421 74.8749 19.1779 74.8749 18.6993C74.8749 18.3039 74.7236 17.9917 74.4209 17.7627C74.1182 17.5338 73.5834 17.3361 72.8166 17.1696L70.3042 16.5765C68.8311 16.2435 67.7414 15.7128 67.0351 14.9844C66.349 14.256 66.0059 13.2882 66.0059 12.0812C66.0059 11.103 66.2784 10.2289 66.8232 9.4589C67.3883 8.68887 68.1652 8.09573 69.154 7.6795C70.1428 7.24246 71.2829 7.02393 72.5744 7.02393C73.6641 7.02393 74.7337 7.20083 75.783 7.55463C76.8323 7.88762 77.7707 8.36629 78.5981 8.99064L77.3268 12.1436C76.5397 11.5817 75.7326 11.155 74.9052 10.8637C74.098 10.5723 73.311 10.4266 72.5442 10.4266C71.7975 10.4266 71.2123 10.5619 70.7885 10.8325C70.3648 11.103 70.1529 11.4776 70.1529 11.9563C70.1529 12.3101 70.2739 12.6015 70.5161 12.8304C70.7784 13.0385 71.2325 13.2154 71.8782 13.3611L74.4511 13.9542C76.0252 14.3288 77.1653 14.8907 77.8716 15.64C78.5779 16.3892 78.931 17.3881 78.931 18.6368C78.931 20.1353 78.3458 21.3215 77.1754 22.1956C76.005 23.0697 74.4007 23.5068 72.3625 23.5068Z" fill="#34284A"/>
<path d="M90.1892 7.02393C91.5009 7.02393 92.6713 7.37773 93.7004 8.08533C94.7296 8.77211 95.5267 9.75026 96.0917 11.0198C96.6769 12.2893 96.9696 13.7357 96.9696 15.359C96.9696 16.9823 96.687 18.4183 96.122 19.667C95.557 20.8949 94.7599 21.8418 93.7307 22.5078C92.7015 23.1738 91.521 23.5068 90.1892 23.5068C89.1197 23.5068 88.1611 23.2778 87.3136 22.82C86.466 22.3621 85.8203 21.7274 85.3763 20.9157V30H80.8056V11.9563C80.8056 10.2706 80.7249 8.76171 80.5635 7.42976H84.8617L85.1644 10.052C85.568 9.11551 86.2138 8.37669 87.1017 7.83559C88.0098 7.29449 89.0389 7.02393 90.1892 7.02393ZM88.8876 19.9168C90.0176 19.9168 90.8854 19.5317 91.4908 18.7617C92.0962 17.9709 92.3989 16.8366 92.3989 15.359C92.3989 13.8814 92.0861 12.7263 91.4605 11.8939C90.8551 11.0614 89.9975 10.6452 88.8876 10.6452C87.7575 10.6452 86.8797 11.051 86.2541 11.8626C85.6487 12.6535 85.3461 13.7981 85.3461 15.2966C85.3461 16.795 85.6487 17.9396 86.2541 18.7305C86.8797 19.5213 87.7575 19.9168 88.8876 19.9168Z" fill="#34284A"/>
<path d="M98.9933 23.257V7.42976H103.564V23.257H98.9933ZM98.842 0H103.715V4.43288H98.842V0Z" fill="#34284A"/>
<path d="M115.321 7.05515C115.967 7.05515 116.512 7.15921 116.956 7.36733L116.925 11.6753C116.179 11.3215 115.432 11.1446 114.686 11.1446C113.475 11.1446 112.546 11.488 111.901 12.1748C111.275 12.8408 110.962 13.7773 110.962 14.9844V23.257H106.392V11.9563C106.392 10.2706 106.311 8.76171 106.149 7.42976H110.448L110.75 10.1457C111.134 9.14672 111.729 8.3871 112.536 7.86681C113.364 7.3257 114.292 7.05515 115.321 7.05515Z" fill="#34284A"/>
<path d="M131.376 15.7336H121.266C121.347 17.2112 121.72 18.2934 122.386 18.9802C123.052 19.6462 124.041 19.9792 125.352 19.9792C126.139 19.9792 126.926 19.8439 127.713 19.5734C128.5 19.3028 129.227 18.9074 129.893 18.3871L131.103 21.5713C130.377 22.1748 129.469 22.6535 128.379 23.0073C127.31 23.3403 126.23 23.5068 125.14 23.5068C122.557 23.5068 120.529 22.7784 119.056 21.3215C117.583 19.8439 116.846 17.8356 116.846 15.2966C116.846 13.6941 117.159 12.2685 117.785 11.0198C118.431 9.75026 119.329 8.77211 120.479 8.08533C121.629 7.37773 122.931 7.02393 124.384 7.02393C126.543 7.02393 128.248 7.75234 129.499 9.20916C130.75 10.6452 131.376 12.5911 131.376 15.0468V15.7336ZM124.505 10.333C123.637 10.333 122.931 10.5931 122.386 11.1134C121.861 11.6337 121.518 12.3933 121.357 13.3923H127.441C127.199 11.3528 126.22 10.333 124.505 10.333Z" fill="#34284A"/>
<path d="M133.337 23.257V0.280957H137.908V23.257H133.337Z" fill="#34284A"/>
<path d="M140.736 23.257V7.42976H145.306V23.257H140.736ZM140.584 0H145.458V4.43288H140.584V0Z" fill="#34284A"/>
<path d="M153.885 10.9573V17.1072C153.885 17.9813 154.107 18.6264 154.551 19.0427C154.995 19.4381 155.57 19.6358 156.277 19.6358C156.721 19.6358 157.225 19.563 157.79 19.4173V23.0697C157.064 23.3611 156.186 23.5068 155.157 23.5068C153.26 23.5068 151.807 22.9553 150.798 21.8522C149.809 20.7492 149.315 19.1988 149.315 17.2008V10.9573H146.409V7.42976H149.315V3.71488L153.885 2.18523V7.42976H157.79V10.9573H153.885Z" fill="#34284A"/>
<path d="M173 15.7336H162.89C162.971 17.2112 163.344 18.2934 164.01 18.9802C164.676 19.6462 165.665 19.9792 166.976 19.9792C167.763 19.9792 168.55 19.8439 169.337 19.5734C170.124 19.3028 170.851 18.9074 171.517 18.3871L172.728 21.5713C172.001 22.1748 171.093 22.6535 170.003 23.0073C168.934 23.3403 167.854 23.5068 166.764 23.5068C164.181 23.5068 162.153 22.7784 160.68 21.3215C159.207 19.8439 158.471 17.8356 158.471 15.2966C158.471 13.6941 158.783 12.2685 159.409 11.0198C160.055 9.75026 160.953 8.77211 162.103 8.08533C163.253 7.37773 164.555 7.02393 166.008 7.02393C168.167 7.02393 169.872 7.75234 171.123 9.20916C172.374 10.6452 173 12.5911 173 15.0468V15.7336ZM166.129 10.333C165.261 10.333 164.555 10.5931 164.01 11.1134C163.485 11.6337 163.142 12.3933 162.981 13.3923H169.065C168.823 11.3528 167.844 10.333 166.129 10.333Z" fill="#34284A"/>
<path d="M33.832 23.1031C33.832 12.7198 28.6064 1.32746 18.6697 1.32746C14.3127 1.32746 8.74346 1.32746 1.47075 1.28369V1.28369C1.47075 5.77958 5.11568 9.41671 9.61154 9.43321C13.1629 9.44625 16.1687 9.47818 18.6697 9.55641C28.1701 9.55641 33.0136 17.2073 33.832 23.1031Z" fill="#00D4A1"/>
<path d="M33.832 23.1033C32.6959 11.1843 25.9557 6.78224 17.8594 6.78224C13.3349 6.78224 7.55184 6.78224 -0.000218391 6.73877V6.73877C-0.000218391 11.2038 3.62061 14.8171 8.08564 14.8312C11.9341 14.8433 15.1765 14.8745 17.8594 14.9548C27.7247 14.9548 30.3604 17.3048 33.832 23.1033Z" fill="#5C20CF"/>
<path d="M10.2969 16.2842H22.3409C26.5669 16.2842 28.0988 17.8037 29.4195 20.3753L14.787 20.2584C11.6175 20.2584 10.7195 18.7973 10.2969 16.2842Z" fill="#DC3545"/>
</svg>
