<svg width="120" height="120" viewBox="0 0 120 120" fill="none" xmlns="http://www.w3.org/2000/svg">
<rect width="22" height="9" rx="2" transform="translate(60 31)" fill="white"/>
<path d="M4 0H0V7H4V0Z" transform="translate(69 40)" fill="white"/>
<path fill-rule="evenodd" clip-rule="evenodd" d="M47.6751 0C49.9524 2.73242 50.8469 15.4258 51.1145 22.9551C51.1546 24.0781 50.2532 25 49.1301 25H1.97194C0.948507 25 0.0881552 24.2266 0.0393271 23.2051C-0.29661 16.1426 1.59987 8.91992 2.67507 6H5.17507V15H4.17507V17H22.1751V15H21.1751V6H24.176L26.1751 0H47.6751ZM19.1751 6V15H7.17507V6H19.1751ZM29.1751 10.998C29.1751 10.4473 29.6175 10 30.1741 10H31.176C31.7278 10 32.1751 10.4434 32.1751 10.998V12.002C32.1751 12.5527 31.7327 13 31.176 13H30.1741C29.6223 13 29.1751 12.5566 29.1751 12.002V10.998ZM33.1751 10.998C33.1751 10.4473 33.6175 10 34.1741 10H35.176C35.7278 10 36.1751 10.4434 36.1751 10.998V12.002C36.1751 12.5527 35.7327 13 35.176 13H34.1741C33.6223 13 33.1751 12.5566 33.1751 12.002V10.998ZM37.1751 10.998C37.1751 10.4473 37.6175 10 38.1741 10H39.176C39.7278 10 40.1751 10.4434 40.1751 10.998V12.002C40.1751 12.5527 39.7327 13 39.176 13H38.1741C37.6223 13 37.1751 12.5566 37.1751 12.002V10.998ZM29.1751 14.998C29.1751 14.4473 29.6175 14 30.1741 14H31.176C31.7278 14 32.1751 14.4434 32.1751 14.998V16.002C32.1751 16.5527 31.7327 17 31.176 17H30.1741C29.6223 17 29.1751 16.5566 29.1751 16.002V14.998ZM33.1751 14.998C33.1751 14.4473 33.6175 14 34.1741 14H35.176C35.7278 14 36.1751 14.4434 36.1751 14.998V16.002C36.1751 16.5527 35.7327 17 35.176 17H34.1741C33.6223 17 33.1751 16.5566 33.1751 16.002V14.998ZM37.1751 14.998C37.1751 14.4473 37.6175 14 38.1741 14H39.176C39.7278 14 40.1751 14.4434 40.1751 14.998V16.002C40.1751 16.5527 39.7327 17 39.176 17H38.1741C37.6223 17 37.1751 16.5566 37.1751 16.002V14.998ZM41.1751 10.998C41.1751 10.4473 41.6175 10 42.1741 10H43.176C43.7278 10 44.1751 10.4434 44.1751 10.998V12.002C44.1751 12.5527 43.7327 13 43.176 13H42.1741C41.6223 13 41.1751 12.5566 41.1751 12.002V10.998ZM41.1751 14.998C41.1751 14.4473 41.6175 14 42.1741 14H43.176C43.7278 14 44.1751 14.4434 44.1751 14.998V16.002C44.1751 16.5527 43.7327 17 43.176 17H42.1741C41.6223 17 41.1751 16.5566 41.1751 16.002V14.998Z" transform="translate(33.8252 47)" fill="white"/>
<path fill-rule="evenodd" clip-rule="evenodd" d="M0 0L1.18182 0.944444L4.36364 0L5.54545 0.944444L8.72727 0L9.90909 0.944444L12 0V17H0V0Z" transform="translate(41 45)" fill="white"/>
<path d="M56 0H2C0.895431 0 0 0.895431 0 2V13C0 14.1046 0.895431 15 2 15H56C57.1046 15 58 14.1046 58 13V2C58 0.895431 57.1046 0 56 0Z" transform="translate(30 75)" fill="white"/>
</svg>
