<svg width="120" height="120" viewBox="0 0 120 120" version="1.1" xmlns="http://www.w3.org/2000/svg" xmlns:xlink="http://www.w3.org/1999/xlink">
<g id="Canvas" fill="none">
<g id="icon-action-unlimited-docs" clip-path="url(#clip0)">
<g id="Group">
<g id="icon-document">
<g id="Group_2">
<g id="Vector">
<path fill-rule="evenodd" clip-rule="evenodd" d="M 1.06081 0L 24.9398 0C 25.5253 0 26 0.474312 26 1.05941L 26 3.94059C 26 4.52569 25.5253 5 24.9398 5L 1.06081 5C 0.475297 5 0.000647071 4.52569 0.000647071 3.94059L 0.000647071 1.05941C 0.000647071 0.474312 0.475297 0 1.06081 0ZM 1.06016 17.9523L 10.9398 17.9523C 11.5253 17.9523 12 18.4266 12 19.0117L 12 22C 12 22.5851 11.5253 23.0594 10.9398 23.0594L 1.06016 23.0594C 0.47465 23.0594 0 22.5851 0 22L 0 19.0117C 0 18.4266 0.47465 17.9523 1.06016 17.9523ZM 1.06081 8.94059L 12.9398 8.94059C 13.5254 8.94059 14 9.41491 14 10L 14 13C 14 13.5851 13.5254 14.0594 12.9398 14.0594L 1.06081 14.0594C 0.475297 14.0594 0.000647071 13.5851 0.000647071 13L 0.000647071 10C 0.000647071 9.41491 0.475297 8.94059 1.06081 8.94059Z" transform="translate(46 57)" fill="white"/>
</g>
<g id="Vector_2">
<path fill-rule="evenodd" clip-rule="evenodd" d="M 8.41348 0.593114C 9.03699 1.99291 9.83755 3.17876 10.8156 4.15686C 11.7947 5.13595 12.9915 5.94664 14.4119 6.58879C 15.2019 6.94594 15.1942 8.07053 14.3994 8.41679C 13.0101 9.022 11.8177 9.82474 10.8156 10.8268C 9.81405 11.8283 9.01541 13.0164 8.41772 14.3972C 8.07863 15.1806 6.9771 15.2064 6.60182 14.4396C 5.91573 13.0379 5.06875 11.8351 4.0604 10.8268C 3.05602 9.82236 1.89756 9.01686 0.580244 8.40764C -0.200842 8.04641 -0.191164 6.93281 0.596084 6.58521C 2.09093 5.92518 3.31418 5.11484 4.27217 4.15686C 5.22581 3.20321 5.99369 2.02615 6.57586 0.617949C 6.91153 -0.193984 8.05599 -0.209452 8.41348 0.593114ZM 23.3769 26.7206C 22.6532 25.9969 22.0232 25.1288 21.4863 24.1177C 20.9776 25.0092 20.3609 25.8174 19.6369 26.5415C 18.8979 27.2805 18.0528 27.926 17.1025 28.478C 18.0505 28.9871 18.8958 29.6125 19.6369 30.3537C 20.3721 31.0888 20.9951 31.9282 21.5056 32.8704C 22.031 31.9152 22.6548 31.0758 23.3769 30.3537C 24.0905 29.6401 24.9142 29.0269 25.8466 28.5142C 24.9056 28.0234 24.0818 27.4255 23.3769 26.7206Z" transform="translate(22 22)" fill="white"/>
</g>
<g id="Vector_3">
<path fill-rule="evenodd" clip-rule="evenodd" d="M 24.7034 6.45674C 23.4811 7.00119 22.4424 7.70245 21.584 8.56077C 20.7252 9.4196 20.0157 10.467 19.4556 11.706C 19.277 12.101 18.7147 12.0971 18.5416 11.6997C 18.0124 10.485 17.3088 9.43976 16.4298 8.56077C 15.5511 7.682 14.5093 6.9817 13.3014 6.45886C 12.9097 6.28931 12.8968 5.73855 13.2802 5.55091C 14.4999 4.95392 15.549 4.21514 16.4298 3.33434C 17.3086 2.45552 18.0137 1.44158 18.5462 0.290122C 18.7268 -0.100422 19.2836 -0.0955808 19.4574 0.298043C 20.0325 1.60052 20.7418 2.67129 21.584 3.51353C 22.4241 4.35359 23.4585 5.02838 24.691 5.53793C 25.097 5.70576 25.1047 6.278 24.7034 6.45674ZM 4.45674 10.2966C 4.79435 11.0545 5.22807 11.697 5.75815 12.227C 6.28873 12.7576 6.93701 13.1968 7.70597 13.5444C 8.10097 13.723 8.09711 14.2853 7.69969 14.4584C 6.94728 14.7862 6.30115 15.2211 5.75815 15.7641C 5.21536 16.3069 4.78259 16.9507 4.45886 17.6986C 4.28931 18.0903 3.73855 18.1032 3.55091 17.7198C 3.17965 16.9613 2.72113 16.3101 2.17511 15.7641C 1.63106 15.2201 1.00354 14.7838 0.290122 14.4538C -0.100421 14.2732 -0.0955818 13.7164 0.298042 13.5426C 1.10714 13.1854 1.76978 12.7464 2.28913 12.227C 2.80631 11.7099 3.22257 11.0718 3.53793 10.309C 3.70576 9.90301 4.278 9.89527 4.45674 10.2966Z" transform="translate(24.5 44.5)" fill="white"/>
</g>
</g>
</g>
<g id="Subtract">
<path fill-rule="evenodd" clip-rule="evenodd" d="M 43 30.4727L 43 19.0371L 32.9951 19.0371C 30.7861 19.0371 28.9951 17.2461 28.9951 15.0371L 28.9951 5L 6.5 5C 5.67188 5 5 5.67188 5 6.5L 5 10.0156C 4.6582 10.8047 4.18848 11.4648 3.5918 11.9941C 2.5127 12.9531 1.31543 13.6523 0 14.0918L 0 6.5C 0 2.91016 2.91016 0 6.5 0L 29.3125 0C 30.9707 0 32.5664 0.634766 33.7725 1.77148L 45.96 13.2676C 47.2617 14.4961 48 16.207 48 17.9961L 48 29.3066L 44.9951 32.1426L 43 30.4727ZM 43 52.8516L 43 53.5039C 43 54.332 42.3281 55.0039 41.5 55.0039L 6.5 55.0039C 5.67188 55.0039 5 54.332 5 53.5039L 5 25.2832L 4.94629 25.1504C 4.79297 24.75 4.33984 23.5723 3.4502 22.543C 2.41797 21.3477 1.00098 20.8516 0.0390625 20.5137L 0 20.5L 0 53.5039C 0 57.0938 2.91016 60.0039 6.5 60.0039L 41.5 60.0039C 45.0898 60.0039 48 57.0938 48 53.5039L 48 52.2617L 45.9951 51.0078L 43 52.8516Z" transform="translate(35.0049 32.9922)" fill="white"/>
</g>
<g id="Union">
<path fill-rule="evenodd" clip-rule="evenodd" d="M 26.0943 4.04354C 27.7413 3.7764 29.8242 5.03367 30.0902 8.37949C 30.2949 10.9376 29.3515 12.4624 28.3588 12.9881C 27.449 13.4688 25.5269 13.5965 22.5964 11.1009L 20.0021 14.1453C 23.53 17.1511 27.2423 18.1046 30.2308 16.5231C 33.1365 14.9848 34.3561 11.5538 34.0775 8.06178C 33.6875 3.1659 30.115 -0.661259 25.4533 0.0958624C 23.3034 0.444359 21.5986 1.65276 20.0905 3.02412C 19.2305 3.80826 18.284 4.79588 17.307 5.81359L 17.2889 5.83359C 16.6497 6.50263 15.998 7.18176 15.3494 7.8276C 14.7678 8.41896 14.2505 8.96763 13.7664 9.47637L 13.735 9.50844C 12.8742 10.4098 12.1246 11.195 11.3343 11.9149C 10.0257 13.1052 9.0268 13.6917 8.02187 13.8544C 6.37489 14.1215 4.29199 12.8643 4.02598 9.51845C 3.8213 6.96037 4.76474 5.43555 5.75738 4.90979C 6.66717 4.42915 8.58932 4.30144 11.5198 6.79705L 14.1141 3.75262C 10.5863 0.746841 6.87392 -0.206622 3.88537 1.37484C 0.979718 2.91313 -0.239873 6.34414 0.0386992 9.83617C 0.428687 14.732 4.00117 18.5592 8.66289 17.8021C 10.8128 17.4536 12.5176 16.2452 14.0257 14.8738C 14.8857 14.0897 15.8322 13.1021 16.8092 12.0844L 16.8273 12.0644C 17.4665 11.3953 18.1182 10.7162 18.7668 10.0703C 19.3484 9.47898 19.8657 8.93031 20.3498 8.42157L 20.3812 8.3895C 21.2421 7.48811 21.9916 6.7029 22.7819 5.98308C 24.0905 4.7927 25.0894 4.20622 26.0943 4.04354Z" transform="matrix(0.999668 0.025774 -0.025774 0.999668 63.9854 65.3711)" fill="white"/>
</g>
</g>
</g>
</g>
<defs>

<clipPath id="clip0">
<rect width="120" height="120" fill="white"/>
</clipPath>

</defs>
</svg>

