<svg width="120" height="120" viewBox="0 0 120 120" fill="none" xmlns="http://www.w3.org/2000/svg">
<path fill-rule="evenodd" clip-rule="evenodd" d="M44 32C44 30.8954 44.8954 30 46 30H62C63.1046 30 64 30.8954 64 32V34C64 35.1046 63.1046 36 62 36H58.8C57.8059 36 57 36.8059 57 37.8V41.2C57 42.1941 57.8059 43 58.8 43H68.2C69.1941 43 70 42.1941 70 41.2V38C70 36.8954 70.8954 36 72 36H75C76.1046 36 77 35.1046 77 34V32C77 30.8954 77.8954 30 79 30H87.6375C88.9423 30 90 31.0577 90 32.3625V41C90 42.1046 89.1046 43 88 43H86C84.8954 43 84 43.8954 84 45V54C84 55.1046 84.8954 56 86 56H88C89.1046 56 90 56.8954 90 58V61C90 62.1046 89.1046 63 88 63H78.8C77.8059 63 77 63.8059 77 64.8V68.2C77 69.1941 77.8059 70 78.8 70H88C89.1046 70 90 70.8954 90 72V75C90 76.1046 89.1046 77 88 77H79C77.8954 77 77 77.8954 77 79V82C77 83.1046 77.8954 84 79 84H88C89.1046 84 90 84.8954 90 86V87.6375C90 88.9423 88.9423 90 87.6375 90H33.375C31.511 90 30 88.489 30 86.625V32.3625C30 31.0577 31.0577 30 32.3625 30H35C36.1046 30 37 30.8954 37 32V34C37 35.1046 37.8954 36 39 36H42C43.1046 36 44 35.1046 44 34V32ZM44 61C44 62.1046 43.1046 63 42 63H39C37.8954 63 37 63.8954 37 65V75C37 76.1046 37.8954 77 39 77H42C43.1046 77 44 76.1046 44 75V72C44 70.8954 44.8954 70 46 70H49C50.1046 70 51 69.1046 51 68V66C51 64.8954 51.8954 64 53 64H55C56.1046 64 57 63.1046 57 62V59C57 57.8954 56.1046 57 55 57H53C51.8954 57 51 56.1046 51 55V52C51 50.8954 50.1046 50 49 50H46C44.8954 50 44 49.1046 44 48V45C44 43.8954 43.1046 43 42 43H39C37.8954 43 37 43.8954 37 45V51C37 52.1046 37.8954 53 39 53H42C43.1046 53 44 53.8954 44 55V61ZM70 55C70 56.1046 69.1046 57 68 57H65C63.8954 57 63 57.8954 63 59V68C63 69.1046 63.8954 70 65 70H68C69.1046 70 70 69.1046 70 68V65C70 63.8954 70.8954 63 72 63H75C76.1046 63 77 62.1046 77 61V45C77 43.8954 76.1046 43 75 43H72C70.8954 43 70 43.8954 70 45V55ZM57 51.8C57 50.8059 57.8059 50 58.8 50H62.2C63.1941 50 64 50.8059 64 51.8V55.2C64 56.1941 63.1941 57 62.2 57H58.8C57.8059 57 57 56.1941 57 55.2V51.8ZM51.8 43C50.8059 43 50 43.8059 50 44.8V48.2C50 49.1941 50.8059 50 51.8 50H55.2C56.1941 50 57 49.1941 57 48.2V44.8C57 43.8059 56.1941 43 55.2 43H51.8ZM44 37.8C44 36.8059 44.8059 36 45.8 36H49.2C50.1941 36 51 36.8059 51 37.8V41.2C51 42.1941 50.1941 43 49.2 43H45.8C44.8059 43 44 42.1941 44 41.2V37.8ZM77 37.8C77 36.8059 77.8059 36 78.8 36H82.2C83.1941 36 84 36.8059 84 37.8V41.2C84 42.1941 83.1941 43 82.2 43H78.8C77.8059 43 77 42.1941 77 41.2V37.8ZM71.8 70C70.8059 70 70 70.8059 70 71.8V75.2C70 76.1941 70.8059 77 71.8 77H75.2C76.1941 77 77 76.1941 77 75.2V71.8C77 70.8059 76.1941 70 75.2 70H71.8ZM55.2 77C56.1941 77 57 77.8059 57 78.8V78.8V82.2C57 83.1941 57.8059 84 58.8 84H61.2H68.2C69.1941 84 70 83.1941 70 82.2V78.8C70 77.8059 69.1941 77 68.2 77H64.8C63.8059 77 63 76.1941 63 75.2V75.2V71.8C63 70.868 62.2917 70.1015 61.384 70.0093C61.3235 70.0031 61.2621 70 61.2 70H58.8H52.8C51.8059 70 51 70.8059 51 71.8V75.2C51 76.1941 51.8059 77 52.8 77H55.2ZM44 78.8C44 77.8059 44.8059 77 45.8 77H49.2C50.1941 77 51 77.8059 51 78.8V82.2C51 83.1941 50.1941 84 49.2 84H45.8C44.8059 84 44 83.1941 44 82.2V78.8Z" fill="white"/>
</svg>
