<svg xmlns="http://www.w3.org/2000/svg" width="36" height="36" viewBox="0 0 36 36">
  <g fill="none" fill-rule="evenodd">
    <g transform="translate(3.728 7.14)">
      <path stroke="#1E79BE" stroke-width="2.3" d="M5.75345455 11.502C8.93099991 11.502 11.5069091 8.92718975 11.5069091 5.751 11.5069091 2.57481025 8.93099991 0 5.75345455 0 2.57590918 0 0 2.57481025 0 5.751 0 8.92718975 2.57590918 11.502 5.75345455 11.502zM23.3334545 11.502C26.5109999 11.502 29.0869091 8.92718975 29.0869091 5.751 29.0869091 2.57481025 26.5109999 0 23.3334545 0 20.1559092 0 17.58 2.57481025 17.58 5.751 17.58 8.92718975 20.1559092 11.502 23.3334545 11.502z"/>
      <path stroke="#1E79BE" stroke-width="2.3" d="M1.56781636,9.585 C1.56781636,9.585 -0.869410909,23.9609025 14.4171982,23.9625 C29.7373691,23.9640975 27.1690909,9.585 27.1690909,9.585"/>
      <path stroke="#1E79BE" stroke-width="2.3" d="M11.0290527,17.096445 C11.0290527,17.096445 11.9911582,18.521415 14.6553273,18.38403 C17.3194964,18.246645 18.4078582,16.7753475 18.6204164,15.8392125" stroke-linecap="round"/>
      <rect width="3.196" height="3.195" x="22.375" y="4.793" fill="#1E79BE" rx="1.597"/>
      <rect width="3.196" height="3.195" x="4.795" y="4.793" fill="#1E79BE" rx="1.597"/>
    </g>
  </g>
</svg>
